<?xml version="1.0" encoding="UTF-8"?>
<svg id="Ebene_2" data-name="Ebene 2" xmlns="http://www.w3.org/2000/svg" viewBox="0 0 80.17 67.4">
  <defs>
    <style>
      .cls-1 {
        fill: #2c2c7a;
      }
    </style>
  </defs>
  <g>
    <path class="cls-1" d="M15.74,22h.9c.31,0,.57-.04.76-.12s.36-.21.52-.4l5.91-6.69c.16-.21.34-.36.52-.45.18-.08.4-.12.67-.12h2.03l-6.76,7.64c-.16.2-.32.36-.48.49-.15.13-.32.23-.49.32.22.07.42.18.61.33.18.14.36.33.53.56l7.06,8.41h-2.08c-.16,0-.29-.01-.4-.03-.11-.02-.21-.05-.29-.1-.08-.04-.15-.1-.22-.16s-.12-.13-.18-.22l-6.12-7.04c-.17-.21-.34-.35-.53-.44-.19-.09-.48-.13-.87-.13h-1.09v8.12h-2.39V14.22h2.39v7.78Z"/>
    <path class="cls-1" d="M40.7,30.01v1.96h-10.95V14.22h10.93v1.96h-8.53v5.89h6.91v1.88h-6.91v6.05h8.54Z"/>
    <path class="cls-1" d="M46.45,31.96h-2.4V14.22h2.4v17.74Z"/>
    <path class="cls-1" d="M65.36,14.22v17.74h-1.2c-.19,0-.35-.03-.48-.1-.13-.07-.25-.18-.38-.33l-10.26-13.37c.02.21.03.41.04.61,0,.2.01.38.01.56v12.64h-2.11V14.22h1.24c.11,0,.2,0,.27.02.07.01.14.03.2.06.06.03.12.07.17.12.06.05.12.12.19.2l10.26,13.36c-.02-.21-.03-.42-.04-.63-.01-.2-.02-.39-.02-.58v-12.57h2.1Z"/>
  </g>
  <g>
    <path class="cls-1" d="M23.3,54.75h-1.23c-.14,0-.26-.04-.35-.11-.09-.07-.15-.16-.2-.27l-1.1-2.84h-5.28l-1.1,2.84c-.03.1-.1.19-.19.26-.09.08-.21.12-.35.12h-1.23l4.71-11.78h1.61l4.71,11.78ZM19.98,50.38l-1.85-4.79c-.05-.14-.11-.31-.17-.5-.06-.19-.12-.39-.17-.6-.12.44-.23.81-.35,1.11l-1.85,4.78h4.4Z"/>
    <path class="cls-1" d="M31.53,53.41v1.34h-6.68v-11.78h1.59v10.44h5.1Z"/>
    <path class="cls-1" d="M39.97,53.41v1.34h-6.68v-11.78h1.59v10.44h5.1Z"/>
    <path class="cls-1" d="M48.99,53.45v1.3h-7.26v-11.78h7.26v1.3h-5.66v3.91h4.59v1.25h-4.59v4.02h5.67Z"/>
    <path class="cls-1" d="M52.81,54.75h-1.59v-11.78h1.59v11.78Z"/>
    <path class="cls-1" d="M65.36,42.98v11.78h-.8c-.13,0-.23-.02-.32-.07-.09-.04-.17-.12-.25-.22l-6.81-8.88c.01.14.02.27.02.4,0,.13,0,.26,0,.37v8.39h-1.4v-11.78h.82c.07,0,.13,0,.18.01.05,0,.09.02.13.04.04.02.08.05.12.08s.08.08.12.14l6.81,8.87c-.01-.14-.02-.28-.03-.41,0-.13-.01-.26-.01-.38v-8.34h1.4Z"/>
  </g>
  <g>
    <path class="cls-1" d="M18.52,37.68v2.98c-.39.28-.81.49-1.25.63s-.93.21-1.45.21c-.62,0-1.19-.1-1.69-.29-.5-.19-.93-.46-1.28-.81-.36-.35-.63-.77-.82-1.25-.19-.49-.29-1.02-.29-1.61s.09-1.13.28-1.62c.19-.49.45-.9.79-1.25.34-.35.76-.62,1.25-.81s1.04-.29,1.64-.29c.31,0,.59.02.85.07.26.05.51.11.73.19s.43.19.62.31c.19.12.37.26.54.41l-.3.48c-.05.07-.11.12-.18.14-.07.02-.16,0-.25-.05-.09-.05-.19-.11-.3-.18-.11-.07-.25-.14-.41-.21s-.35-.12-.57-.17c-.22-.05-.48-.07-.78-.07-.44,0-.83.07-1.18.21-.35.14-.65.35-.9.61-.25.27-.44.59-.57.96-.13.38-.2.8-.2,1.27s.07.92.21,1.31.34.71.59.98c.26.27.57.47.94.61.37.14.78.21,1.24.21.36,0,.68-.04.96-.12.28-.08.55-.19.82-.34v-1.7h-1.21c-.07,0-.12-.02-.16-.06-.04-.04-.06-.09-.06-.15v-.6h2.38Z"/>
    <path class="cls-1" d="M24.91,40.55v.85h-4.78v-7.75h4.78v.85h-3.73v2.57h3.02v.82h-3.02v2.65h3.73Z"/>
    <path class="cls-1" d="M36.42,33.65l-2.42,7.75h-.94l-1.96-5.91c-.02-.06-.04-.12-.05-.18s-.03-.13-.05-.21c-.02.07-.04.14-.05.21-.02.06-.04.13-.05.18l-1.97,5.91h-.94l-2.42-7.75h.87c.09,0,.17.02.24.07.06.05.1.11.12.18l1.6,5.39c.03.1.05.2.07.31s.05.23.07.36c.02-.13.05-.25.08-.36s.06-.22.09-.31l1.82-5.39c.02-.06.06-.12.13-.17s.14-.08.23-.08h.3c.09,0,.17.02.23.07.06.05.1.11.13.18l1.82,5.39c.03.09.06.19.09.3.03.11.05.22.08.34.02-.12.04-.23.06-.34.02-.11.05-.21.07-.3l1.61-5.39c.02-.06.06-.12.12-.17s.14-.08.23-.08h.82Z"/>
    <path class="cls-1" d="M38.63,41.41h-1.05v-7.75h1.05v7.75Z"/>
    <path class="cls-1" d="M45.85,34.54h-2.51v6.87h-1.04v-6.87h-2.52v-.88h6.07v.88Z"/>
    <path class="cls-1" d="M52.24,34.54h-2.51v6.87h-1.04v-6.87h-2.52v-.88h6.07v.88Z"/>
    <path class="cls-1" d="M58.17,40.55v.85h-4.78v-7.75h4.78v.85h-3.73v2.57h3.02v.82h-3.02v2.65h3.73Z"/>
    <path class="cls-1" d="M65.36,41.41h-.93c-.19,0-.33-.07-.42-.22l-2.01-2.77c-.06-.09-.13-.15-.2-.19s-.18-.06-.33-.06h-.8v3.23h-1.04v-7.75h2.19c.49,0,.91.05,1.27.15.36.1.65.24.88.43.23.19.4.41.52.68.11.27.17.56.17.89,0,.27-.04.53-.13.77-.09.24-.21.45-.38.64s-.36.35-.6.48c-.24.13-.5.23-.8.3.13.08.25.19.35.33l2.26,3.08ZM61.78,37.41c.3,0,.57-.04.8-.11.23-.07.43-.18.58-.31.16-.14.27-.3.35-.48.08-.19.12-.39.12-.62,0-.46-.15-.81-.45-1.04s-.76-.35-1.36-.35h-1.15v2.93h1.1Z"/>
  </g>
</svg>